<svg xmlns="http://www.w3.org/2000/svg" width="114.303" height="38.834" viewBox="0 0 114.303 38.834"><g transform="translate(-324.332 -36.865)"><path d="M359.148,64.246c.473,3.075,2.321,4.733,4.865,4.975,2.354.223,4.789-.6,7.2-.643,1.067-.021,2.745.466,3.067,1.2A3.534,3.534,0,0,1,373.382,73c-4.3,3.538-13.2,2.762-17.493-1.318-4.517-4.3-5.158-12.314-1.406-17.6,3.468-4.887,10.959-6.728,16.379-4.025a11.643,11.643,0,0,1,6.33,11.137c-.147,2.032-1.1,2.952-3.214,2.9-3.931-.091-7.866-.034-11.8-.016C361.235,64.085,360.29,64.18,359.148,64.246Zm-.016-4.876h11.2c-.465-3.284-1.961-4.695-4.919-4.843C361.883,54.35,359.938,55.791,359.132,59.37Z" fill="#fff"/><path d="M330.858,49.417c1.764,0,3.218-.109,4.649.027,1.99.188,3.421,1.26,3.282,3.391-.125,1.931-1.446,2.9-3.41,2.893-1.359,0-2.719,0-4.395,0,0,3.619-.139,7.018.048,10.4.13,2.361,1.773,3,3.983,2.693,1.667-.23,3.618-.419,3.959,1.845a3.611,3.611,0,0,1-1.117,3.011,9.983,9.983,0,0,1-9.306.837c-2.893-1.162-4.023-3.78-4.091-6.625-.178-7.353-.118-14.713-.12-22.069a2.83,2.83,0,0,1,3.132-3.1,2.994,2.994,0,0,1,3.378,3.206C330.9,46.972,330.858,48.026,330.858,49.417Z" fill="#fff"/><path d="M386.383,50.711a26.421,26.421,0,0,1,4.866-1.722c1.891-.292,3.622.473,3.83,2.7.214,2.286-1.1,3.593-3.337,3.527-4.9-.145-5.705,1.8-5.48,6.159.167,3.234.009,6.483.04,9.725.022,2.319-.962,3.932-3.356,3.937-2.447.006-3.283-1.667-3.264-3.976.047-5.7-.115-11.4.1-17.092.057-1.547.763-3.826,1.866-4.376,1.227-.611,3.247.369,4.922.657Z" fill="#fff"/><path d="M348.6,62.229c0,3.141,0,6.281,0,9.422,0,2.162-1.175,3.388-3.221,3.388a3.065,3.065,0,0,1-3.293-3.363q-.042-9.57.006-19.138a3.018,3.018,0,0,1,3.265-3.354c2.157-.015,3.224,1.2,3.233,3.329C348.612,55.751,348.6,58.99,348.6,62.229Z" fill="#fff"/><path d="M349.194,40.732a3.729,3.729,0,0,1-3.692,4.081,3.873,3.873,0,0,1-4.039-4.079,3.685,3.685,0,0,1,3.888-3.868A3.582,3.582,0,0,1,349.194,40.732Z" fill="#fff"/><path d="M420.235,47.9l0-.061c0-.028,0-.055-.006-.083s-.005-.064-.008-.1l0-.027a3.41,3.41,0,0,0-.456-1.353l-.014-.024-.043-.068c-.016-.025-.032-.051-.049-.076l0,0a3.384,3.384,0,0,0-.485-.569c-.019-.018-.037-.037-.057-.054l-.038-.033c-.031-.028-.063-.056-.1-.082l-.016-.013a3.388,3.388,0,0,0-.574-.374h0c-.05-.025-.1-.05-.151-.073l-.011-.005q-.07-.031-.141-.06l-.023-.009c-.044-.017-.087-.033-.131-.048l-.036-.013-.119-.037-.05-.014-.107-.028-.064-.014-.1-.02-.076-.014-.086-.013c-.029-.005-.059-.008-.089-.012l-.076-.008-.1-.007-.071,0-.1,0h-.075l-.085,0-.092,0-.05,0a3.4,3.4,0,0,0-1.624.548l-.042.026-.042.03a3.393,3.393,0,0,0-.446.37l-.023.022c-.019.019-.036.038-.054.057s-.044.045-.065.069l-.029.032c-.029.034-.058.067-.086.1l-.011.014c-.034.041-.066.084-.1.127h0c-.035.049-.069.1-.1.148l-8.766,13.389a3.431,3.431,0,1,0,5.741,3.759l2.467-3.767V72.268a3.432,3.432,0,0,0,6.863,0V48.016Z" fill="#52deb6"/><path d="M438.074,55.825l-8.767-13.388c-.033-.05-.067-.1-.1-.148v0c-.032-.043-.064-.085-.1-.127l-.011-.014c-.028-.034-.057-.068-.086-.1l-.029-.033-.065-.069c-.018-.019-.035-.038-.054-.056l-.023-.023a3.453,3.453,0,0,0-.446-.369l-.042-.03-.041-.026a3.409,3.409,0,0,0-1.625-.549l-.05,0-.092,0-.085,0h-.023l-.052,0-.1,0-.072,0-.1.008-.076.008-.089.011-.085.013-.077.014-.1.02-.064.015c-.036.008-.071.018-.107.028l-.05.014c-.04.011-.079.024-.119.037l-.036.012c-.044.015-.087.031-.131.048l-.022.009c-.048.019-.1.04-.142.061l-.011.005c-.051.023-.1.047-.15.073h0a3.435,3.435,0,0,0-.574.375l-.016.012c-.033.027-.064.055-.1.082l-.038.033-.057.054a3.4,3.4,0,0,0-.486.57l0,0-.049.077-.043.068-.013.023a3.4,3.4,0,0,0-.457,1.353l0,.027c0,.032-.005.064-.008.1s-.005.055-.006.082,0,.041,0,.062q0,.059,0,.117V68.55a3.431,3.431,0,1,0,6.863,0V55.817l2.467,3.768a3.432,3.432,0,1,0,5.742-3.76Z" fill="#52deb6"/></g></svg>