<?xml version="1.0" encoding="utf-8"?>
<!-- Generator: Adobe Illustrator 16.0.4, SVG Export Plug-In . SVG Version: 6.00 Build 0)  -->
<!DOCTYPE svg PUBLIC "-//W3C//DTD SVG 1.1//EN" "http://www.w3.org/Graphics/SVG/1.1/DTD/svg11.dtd">
<svg version="1.1" id="Layer_1" xmlns="http://www.w3.org/2000/svg" xmlns:xlink="http://www.w3.org/1999/xlink" x="0px" y="0px"
	 width="658.615px" height="670.275px" viewBox="2131.615 0 658.615 670.275" enable-background="new 2131.615 0 658.615 670.275"
	 xml:space="preserve">
<g transform="translate(983.59 -7501.869)">
	<g transform="translate(1151.561 7501.869)" opacity="0.07">
		<path fill="#FFFFFF" d="M300.869,135.098c-0.016-0.395-0.023-0.793-0.045-1.188c-0.031-0.531-0.078-1.058-0.122-1.586
			c-0.048-0.614-0.093-1.229-0.159-1.839c-0.019-0.173-0.045-0.345-0.064-0.519c-1.059-9.205-4.055-18.082-8.79-26.046
			c-0.089-0.15-0.171-0.3-0.261-0.452c-0.268-0.446-0.555-0.876-0.832-1.312c-0.312-0.491-0.616-0.986-0.941-1.467
			c-0.016-0.024-0.033-0.048-0.051-0.07c-2.7-3.988-5.832-7.667-9.338-10.969c-0.364-0.346-0.724-0.7-1.1-1.034
			c-0.238-0.215-0.49-0.423-0.732-0.635c-0.609-0.535-1.222-1.065-1.85-1.577c-0.1-0.081-0.199-0.158-0.3-0.237
			c-3.435-2.767-7.137-5.183-11.052-7.212l-0.017-0.009c-0.953-0.495-1.92-0.967-2.899-1.413l-0.211-0.1
			c-0.896-0.406-1.805-0.792-2.723-1.161c-0.146-0.059-0.293-0.117-0.441-0.175c-0.83-0.324-1.669-0.632-2.516-0.927l-0.693-0.234
			c-0.758-0.251-1.522-0.493-2.293-0.717c-0.318-0.095-0.637-0.183-0.957-0.272c-0.684-0.188-1.373-0.366-2.066-0.535
			c-0.407-0.1-0.814-0.191-1.223-0.281c-0.611-0.133-1.227-0.261-1.846-0.382c-0.492-0.1-0.985-0.184-1.479-0.267
			c-0.544-0.089-1.091-0.177-1.64-0.255c-0.571-0.081-1.143-0.154-1.715-0.218c-0.488-0.056-0.979-0.111-1.471-0.159
			c-0.629-0.057-1.258-0.1-1.886-0.144c-0.457-0.027-0.914-0.059-1.374-0.078c-0.641-0.027-1.28-0.04-1.919-0.049
			c-0.331,0-0.658-0.024-0.99-0.024c-0.149,0-0.3,0.011-0.444,0.011c-0.549,0-1.101,0.023-1.644,0.042
			c-0.593,0.018-1.187,0.034-1.772,0.068c-0.32,0.02-0.64,0.049-0.959,0.071c-11.152,0.797-21.916,4.429-31.271,10.55
			c-0.266,0.174-0.535,0.336-0.8,0.512s-0.533,0.381-0.8,0.57c-3.062,2.124-5.938,4.505-8.592,7.12
			c-0.148,0.145-0.301,0.285-0.449,0.43c-0.354,0.354-0.693,0.729-1.039,1.091c-0.422,0.442-0.846,0.877-1.254,1.328
			c-0.186,0.206-0.361,0.421-0.545,0.627c-0.562,0.641-1.119,1.287-1.66,1.947c-0.072,0.091-0.144,0.186-0.217,0.276
			c-0.643,0.8-1.268,1.613-1.875,2.438l-0.021,0.03c-0.684,0.934-1.337,1.889-1.971,2.855L10.802,359.252
			c-19.984,30.521-11.443,71.464,19.078,91.449c30.521,19.984,71.464,11.443,91.448-19.078l47.49-72.524v245.114
			c0,36.482,29.575,66.059,66.058,66.059s66.057-29.576,66.057-66.059v-466.6c0-0.087-0.006-0.172-0.006-0.258
			C300.921,136.605,300.899,135.851,300.869,135.098z"/>
		<path fill="#FFFFFF" d="M644.277,287.699L475.521,29.968c-0.633-0.969-1.29-1.92-1.971-2.854l-0.021-0.033
			c-0.606-0.826-1.231-1.638-1.875-2.436c-0.072-0.092-0.145-0.187-0.219-0.276c-0.538-0.662-1.096-1.308-1.658-1.947
			c-0.182-0.208-0.359-0.423-0.545-0.628c-0.409-0.454-0.834-0.891-1.256-1.331c-0.346-0.364-0.684-0.734-1.036-1.087
			c-0.149-0.15-0.308-0.292-0.458-0.439c-2.651-2.609-5.521-4.987-8.576-7.108c-0.271-0.187-0.537-0.389-0.811-0.574
			c-0.274-0.185-0.529-0.337-0.793-0.508c-9.356-6.124-20.122-9.755-31.276-10.552c-0.319-0.024-0.64-0.055-0.959-0.074
			c-0.588-0.034-1.181-0.05-1.772-0.068c-0.547-0.018-1.1-0.035-1.643-0.04c-0.15,0-0.3-0.012-0.445-0.012
			c-0.332,0-0.66,0.02-0.99,0.024c-0.641,0.009-1.279,0.021-1.919,0.049c-0.46,0.021-0.917,0.051-1.376,0.08
			c-0.629,0.041-1.258,0.084-1.887,0.144c-0.491,0.045-0.979,0.1-1.468,0.156c-0.573,0.067-1.144,0.137-1.716,0.218
			c-0.548,0.078-1.094,0.166-1.638,0.258c-0.495,0.083-0.989,0.171-1.482,0.264c-0.618,0.118-1.233,0.248-1.846,0.382
			c-0.407,0.092-0.813,0.185-1.22,0.283c-0.694,0.166-1.383,0.346-2.069,0.534c-0.318,0.089-0.637,0.181-0.955,0.272
			c-0.771,0.227-1.536,0.466-2.295,0.719c-0.231,0.077-0.46,0.152-0.69,0.232c-0.848,0.293-1.688,0.602-2.518,0.928l-0.439,0.175
			c-0.919,0.368-1.826,0.754-2.723,1.16c-0.07,0.032-0.14,0.063-0.211,0.1c-0.981,0.446-1.947,0.917-2.9,1.411l-0.014,0.008
			c-3.915,2.029-7.617,4.445-11.052,7.212c-0.101,0.08-0.2,0.157-0.3,0.239c-0.627,0.512-1.239,1.04-1.848,1.574
			c-0.242,0.214-0.494,0.421-0.734,0.637c-0.372,0.336-0.73,0.688-1.094,1.031c-3.511,3.307-6.646,6.99-9.349,10.984l-0.041,0.057
			c-0.326,0.484-0.632,0.979-0.944,1.472c-0.277,0.437-0.562,0.864-0.832,1.307c-0.089,0.149-0.17,0.3-0.259,0.45
			c-4.737,7.965-7.733,16.843-8.792,26.05c-0.02,0.173-0.047,0.347-0.066,0.519c-0.065,0.608-0.11,1.223-0.158,1.839
			c-0.043,0.528-0.09,1.056-0.12,1.586c-0.022,0.393-0.031,0.792-0.046,1.188c-0.029,0.753-0.055,1.5-0.058,2.257
			c0,0.09-0.006,0.174-0.006,0.262v466.6c0,36.482,29.575,66.057,66.058,66.057s66.057-29.574,66.057-66.057V287.539l47.49,72.528
			c19.903,30.572,60.822,39.222,91.396,19.318c30.572-19.904,39.223-60.823,19.318-91.396c-0.062-0.097-0.127-0.194-0.19-0.291
			H644.277z"/>
	</g>
	<g transform="translate(1540.776 7966.224)" opacity="0.5">
		<g opacity="0.18">
			<path fill="#87C9CC" d="M4.548,0h5.098c2.512,0,4.549,2.036,4.549,4.549v5.097c0,2.513-2.037,4.549-4.549,4.549H4.548
				c-2.512,0-4.549-2.036-4.549-4.549V4.549C-0.001,2.037,2.036,0,4.548,0z"/>
			<path fill="#87C9CC" d="M32.866,0h5.097c2.513,0,4.549,2.036,4.549,4.549v5.097c0,2.513-2.036,4.549-4.549,4.549h-5.097
				c-2.513,0-4.549-2.036-4.549-4.549V4.549C28.317,2.037,30.353,0,32.866,0z"/>
			<path fill="#87C9CC" d="M61.182,0h5.097c2.513,0,4.549,2.036,4.549,4.549v5.097c0,2.513-2.036,4.549-4.549,4.549h-5.097
				c-2.513,0-4.55-2.036-4.55-4.549V4.549C56.632,2.037,58.669,0,61.182,0z"/>
			<path fill="#87C9CC" d="M89.498,0h5.097c2.513,0,4.55,2.036,4.55,4.549v5.097c0,2.513-2.037,4.549-4.55,4.549h-5.097
				c-2.513,0-4.549-2.036-4.549-4.549V4.549C84.95,2.037,86.986,0,89.498,0z"/>
			<path fill="#87C9CC" d="M117.816,0h5.097c2.513,0,4.55,2.036,4.55,4.549v5.097c0,2.513-2.037,4.549-4.55,4.549h-5.097
				c-2.513,0-4.549-2.036-4.549-4.549V4.549C113.267,2.037,115.303,0,117.816,0z"/>
			<path fill="#87C9CC" d="M4.548,28.945h5.098c2.512,0,4.549,2.037,4.549,4.549v5.098c0,2.512-2.037,4.549-4.549,4.549H4.548
				c-2.512,0-4.549-2.037-4.549-4.549v-5.098C-0.001,30.982,2.036,28.945,4.548,28.945z"/>
			<path fill="#87C9CC" d="M32.866,28.945h5.097c2.513,0,4.549,2.037,4.549,4.549v5.098c0,2.512-2.036,4.549-4.549,4.549h-5.097
				c-2.513,0-4.549-2.037-4.549-4.549v-5.098C28.317,30.982,30.353,28.945,32.866,28.945z"/>
			<path fill="#87C9CC" d="M61.182,28.945h5.097c2.513,0,4.549,2.037,4.549,4.549v5.098c0,2.512-2.036,4.549-4.549,4.549h-5.097
				c-2.513,0-4.55-2.037-4.55-4.549v-5.098C56.632,30.982,58.669,28.945,61.182,28.945z"/>
			<path fill="#87C9CC" d="M89.498,28.945h5.097c2.513,0,4.55,2.037,4.55,4.549v5.098c0,2.512-2.037,4.549-4.55,4.549h-5.097
				c-2.513,0-4.549-2.037-4.549-4.549v-5.098C84.95,30.982,86.986,28.945,89.498,28.945z"/>
			<path fill="#87C9CC" d="M117.816,28.945h5.097c2.513,0,4.55,2.037,4.55,4.549v5.098c0,2.512-2.037,4.549-4.55,4.549h-5.097
				c-2.513,0-4.549-2.037-4.549-4.549v-5.098C113.267,30.982,115.303,28.945,117.816,28.945z"/>
			<path fill="#87C9CC" d="M4.548,57.891h5.098c2.512,0,4.549,2.036,4.549,4.549v5.097c0,2.513-2.037,4.55-4.549,4.55H4.548
				c-2.512,0-4.549-2.037-4.549-4.55V62.44C-0.001,59.927,2.036,57.891,4.548,57.891z"/>
			<path fill="#87C9CC" d="M32.866,57.891h5.097c2.513,0,4.549,2.036,4.549,4.549v5.097c0,2.513-2.036,4.55-4.549,4.55h-5.097
				c-2.513,0-4.549-2.037-4.549-4.55V62.44C28.317,59.927,30.353,57.891,32.866,57.891z"/>
			<path fill="#87C9CC" d="M-2519.818-266.109h5.097c2.513,0,4.549,2.037,4.549,4.549v5.097c0,2.512-2.036,4.549-4.549,4.549h-5.097
				c-2.513,0-4.549-2.037-4.549-4.549v-5.097C-2524.367-264.072-2522.331-266.109-2519.818-266.109z"/>
			<path fill="#87C9CC" d="M89.498,57.891h5.097c2.513,0,4.55,2.036,4.55,4.549v5.097c0,2.513-2.037,4.55-4.55,4.55h-5.097
				c-2.513,0-4.549-2.037-4.549-4.55V62.44C84.95,59.927,86.986,57.891,89.498,57.891z"/>
			<path fill="#87C9CC" d="M117.816,57.891h5.097c2.513,0,4.55,2.036,4.55,4.549v5.097c0,2.513-2.037,4.55-4.55,4.55h-5.097
				c-2.513,0-4.549-2.037-4.549-4.55V62.44C113.267,59.927,115.303,57.891,117.816,57.891z"/>
			<path fill="#87C9CC" d="M4.548,86.837h5.098c2.512,0,4.549,2.036,4.549,4.549v5.097c0,2.513-2.037,4.549-4.549,4.549H4.548
				c-2.512,0-4.549-2.036-4.549-4.549v-5.097C-0.001,88.874,2.036,86.837,4.548,86.837z"/>
			<path fill="#87C9CC" d="M32.866,86.837h5.097c2.513,0,4.549,2.036,4.549,4.549v5.097c0,2.513-2.036,4.549-4.549,4.549h-5.097
				c-2.513,0-4.549-2.036-4.549-4.549v-5.097C28.317,88.874,30.353,86.837,32.866,86.837z"/>
			<path fill="#87C9CC" d="M61.182,86.837h5.097c2.513,0,4.549,2.036,4.549,4.549v5.097c0,2.513-2.036,4.549-4.549,4.549h-5.097
				c-2.513,0-4.55-2.036-4.55-4.549v-5.097C56.632,88.874,58.669,86.837,61.182,86.837z"/>
			<path fill="#87C9CC" d="M89.498,86.837h5.097c2.513,0,4.55,2.036,4.55,4.549v5.097c0,2.513-2.037,4.549-4.55,4.549h-5.097
				c-2.513,0-4.549-2.036-4.549-4.549v-5.097C84.95,88.874,86.986,86.837,89.498,86.837z"/>
			<path fill="#87C9CC" d="M117.816,86.837h5.097c2.513,0,4.55,2.036,4.55,4.549v5.097c0,2.513-2.037,4.549-4.55,4.549h-5.097
				c-2.513,0-4.549-2.036-4.549-4.549v-5.097C113.267,88.874,115.303,86.837,117.816,86.837z"/>
			<path fill="#87C9CC" d="M4.548,115.782h5.098c2.512,0,4.549,2.037,4.549,4.549v5.098c0,2.512-2.037,4.549-4.549,4.549H4.548
				c-2.512,0-4.549-2.037-4.549-4.549v-5.098C-0.001,117.819,2.036,115.782,4.548,115.782z"/>
			<path fill="#87C9CC" d="M32.866,115.782h5.097c2.513,0,4.549,2.037,4.549,4.549v5.098c0,2.512-2.036,4.549-4.549,4.549h-5.097
				c-2.513,0-4.549-2.037-4.549-4.549v-5.098C28.317,117.819,30.353,115.782,32.866,115.782z"/>
			<path fill="#87C9CC" d="M61.182,115.782h5.097c2.513,0,4.549,2.037,4.549,4.549v5.098c0,2.512-2.036,4.549-4.549,4.549h-5.097
				c-2.513,0-4.55-2.037-4.55-4.549v-5.098C56.632,117.819,58.669,115.782,61.182,115.782z"/>
			<path fill="#87C9CC" d="M89.498,115.782h5.097c2.513,0,4.55,2.037,4.55,4.549v5.098c0,2.512-2.037,4.549-4.55,4.549h-5.097
				c-2.513,0-4.549-2.037-4.549-4.549v-5.098C84.95,117.819,86.986,115.782,89.498,115.782z"/>
			<path fill="#87C9CC" d="M117.816,115.782h5.097c2.513,0,4.55,2.037,4.55,4.549v5.098c0,2.512-2.037,4.549-4.55,4.549h-5.097
				c-2.513,0-4.549-2.037-4.549-4.549v-5.098C113.267,117.819,115.303,115.782,117.816,115.782z"/>
		</g>
	</g>
</g>
</svg>
